<?xml version="1.0" encoding="UTF-8"?>
<!DOCTYPE svg PUBLIC "-//W3C//DTD SVG 1.1//EN" "http://www.w3.org/Graphics/SVG/1.1/DTD/svg11.dtd">
<!-- Creator: CorelDRAW X8 -->
<svg xmlns="http://www.w3.org/2000/svg" xml:space="preserve" width="118px" height="127px" version="1.1" style="shape-rendering:geometricPrecision; text-rendering:geometricPrecision; image-rendering:optimizeQuality; fill-rule:evenodd; clip-rule:evenodd"
viewBox="0 0 241 258"
 xmlns:xlink="http://www.w3.org/1999/xlink">
 <defs>
  <style type="text/css">
   <![CDATA[
    .str0 {stroke:#67AF99;stroke-width:25.4399}
    .fil1 {fill:none}
    .fil0 {fill:#67AF99}
   ]]>
  </style>
 </defs>
 <g id="Слой_x0020_1">
  <metadata id="CorelCorpID_0Corel-Layer"/>
  <g id="_776366282336">
   <path class="fil0" d="M6 22c0,3 0,11 1,13 0,1 2,3 1,2 5,0 10,0 15,0 4,0 1,4 -2,12 -2,4 -3,8 -5,12 -15,44 -26,101 -1,143 3,5 5,8 8,11 5,7 10,11 16,16 1,1 2,2 3,2 6,5 17,11 24,14 4,2 9,4 14,5 10,3 20,5 32,6 30,2 64,-7 87,-25 9,-6 13,-11 20,-18 10,-12 20,-33 21,-54 1,-16 1,-19 0,-35 -1,-12 -3,-21 -5,-32 -3,-14 -11,-36 -17,-49 0,-2 -2,-5 -2,-8l9 0c10,0 10,1 10,-10 0,-2 0,-10 0,-12 -1,0 -1,-1 -2,-1l-40 0c-15,0 -14,-2 -14,14 0,10 1,8 6,14l4 5c13,18 18,46 16,69 -2,15 -4,25 -9,39 -4,10 -9,18 -16,27 -3,5 -11,12 -15,16 -1,0 -1,0 -2,1 -1,1 -3,2 -5,4 -7,4 -20,9 -28,10 -19,1 -35,-2 -50,-13 -21,-14 -36,-41 -41,-68 -5,-24 -4,-44 4,-67 2,-8 9,-19 14,-24 5,-4 5,-6 5,-14 0,-3 0,-7 0,-9 0,-5 -5,-4 -10,-4l-42 0c-5,0 -4,1 -4,8zm161 191c7,0 12,6 12,12 0,7 -5,13 -12,13 -6,0 -12,-6 -12,-13 0,-6 6,-12 12,-12zm36 -30c6,0 11,5 11,11 0,6 -5,11 -11,11 -7,0 -12,-5 -12,-11 0,-6 5,-11 12,-11zm17 -40c6,0 11,4 11,10 0,6 -5,11 -11,11 -6,0 -10,-5 -10,-11 0,-6 4,-10 10,-10zm2 -47c5,0 10,5 10,10 0,6 -5,10 -10,10 -6,0 -10,-4 -10,-10 0,-5 4,-10 10,-10zm-148 117c-7,0 -12,6 -12,12 0,7 5,13 12,13 7,0 12,-6 12,-13 0,-6 -5,-12 -12,-12zm-36 -30c-6,0 -11,5 -11,11 0,6 5,11 11,11 7,0 12,-5 12,-11 0,-6 -5,-11 -12,-11zm-17 -40c-6,0 -10,4 -10,10 0,6 4,11 10,11 6,0 11,-5 11,-11 0,-6 -5,-10 -11,-10zm-2 -47c-5,0 -9,5 -9,10 0,6 4,10 9,10 6,0 10,-4 10,-10 0,-5 -4,-10 -10,-10z"/>
   <path class="fil0" d="M162 77l38 0c-1,-1 -12,-15 -14,-18l-7 -8c-3,-3 -5,-7 -7,-9l-34 0c0,1 10,15 12,18l12 17z"/>
   <path class="fil0" d="M42 77l37 0 18 -26c2,-2 6,-7 7,-9l-33 0 -29 35z"/>
   <path class="fil0" d="M108 79l26 0c1,-4 1,-14 -1,-18 -5,-11 -20,-10 -24,0 -1,3 -2,15 -1,18z"/>
   <path class="fil0" d="M110 77c2,1 19,0 22,0 0,-6 1,-12 -2,-17 -5,-7 -16,-6 -19,3 -2,3 -1,10 -1,14z"/>
   <polyline class="fil1 str0" points="105,41 79,78 40,78 70,41 105,41 121,21 136,41 171,41 201,78 162,78 136,41 "/>
  </g>
 </g>
</svg>
